<svg width="24" height="24" viewBox="0 0 24 24" fill="none" xmlns="http://www.w3.org/2000/svg">
<path d="M22.7999 17.4V6.60005C22.7999 5.60405 21.9959 4.80005 20.9999 4.80005H4.18794C3.19194 4.80005 2.38794 5.60405 2.38794 6.60005V17.4C2.38794 18.396 3.19194 19.2 4.18794 19.2H20.9999C21.9959 19.2 22.7999 18.396 22.7999 17.4ZM21.2279 6.46805C21.6239 6.86405 21.4079 7.27205 21.1919 7.47605L16.3199 11.94L20.9999 16.812C21.1439 16.98 21.2399 17.244 21.0719 17.424C20.9159 17.616 20.5559 17.604 20.3999 17.484L15.1559 13.008L12.5879 15.348L10.0319 13.008L4.78794 17.484C4.63194 17.604 4.27194 17.616 4.11594 17.424C3.94794 17.244 4.04394 16.98 4.18794 16.812L8.86794 11.94L3.99594 7.47605C3.77994 7.27205 3.56394 6.86405 3.95994 6.46805C4.35594 6.07205 4.76394 6.26405 5.09994 6.55205L12.5879 12.6L20.0879 6.55205C20.4239 6.26405 20.8319 6.07205 21.2279 6.46805Z" fill="#BBBBBB"/>
</svg>
