<svg width="52" height="58" viewBox="0 0 52 58" fill="none" xmlns="http://www.w3.org/2000/svg">
<path d="M45.9771 12.2805C46.5786 11.7108 46.6044 10.7614 46.0347 10.1599C45.465 9.55847 44.5156 9.53267 43.9142 10.1023L18.7139 33.9694C18.1124 34.539 18.0867 35.4884 18.6563 36.0899C19.226 36.6914 20.1754 36.7172 20.7768 36.1475L45.9771 12.2805Z" fill="white" fill-opacity="0.5"/>
<path d="M2.99927 1.5C2.99927 0.671573 2.32769 0 1.49927 0C0.67084 0 -0.000732481 0.671573 -0.000732481 1.5V16.5C-0.000732481 17.3284 0.67084 18 1.49927 18C2.32769 18 2.99927 17.3284 2.99927 16.5V1.5Z" fill="white" fill-opacity="0.5"/>
<path d="M49.5279 54.8181C50.3474 54.6969 50.9135 53.9343 50.7923 53.1148C50.6711 52.2953 49.9085 51.7292 49.089 51.8503L34.2504 54.0447C33.4308 54.1659 32.8647 54.9285 32.9859 55.748C33.1071 56.5675 33.8697 57.1336 34.6892 57.0124L49.5279 54.8181Z" fill="white" fill-opacity="0.5"/>
</svg>
