<svg width="42" height="43" viewBox="0 0 42 43" fill="none" xmlns="http://www.w3.org/2000/svg">
<path d="M19.5125 1.5C19.5125 0.671573 20.184 0 21.0125 0C21.8409 0 22.5125 0.671573 22.5125 1.5V16.5C22.5125 17.3284 21.8409 18 21.0125 18C20.184 18 19.5125 17.3284 19.5125 16.5V1.5Z" fill="white" fill-opacity="0.5"/>
<path d="M19.5125 26.5C19.5125 25.6716 20.184 25 21.0125 25C21.8409 25 22.5125 25.6716 22.5125 26.5V41.5C22.5125 42.3284 21.8409 43 21.0125 43C20.184 43 19.5125 42.3284 19.5125 41.5V26.5Z" fill="white" fill-opacity="0.5"/>
<path d="M25.5 23.5C24.6716 23.5 24 22.8284 24 22C24 21.1716 24.6716 20.5 25.5 20.5H40.5C41.3284 20.5 42 21.1716 42 22C42 22.8284 41.3284 23.5 40.5 23.5H25.5Z" fill="white" fill-opacity="0.5"/>
<path d="M1.5 23.5C0.671573 23.5 0 22.8284 0 22C0 21.1716 0.671573 20.5 1.5 20.5H16.5C17.3284 20.5 18 21.1716 18 22C18 22.8284 17.3284 23.5 16.5 23.5H1.5Z" fill="white" fill-opacity="0.5"/>
</svg>
