<svg width="40" height="40" viewBox="0 0 40 40" fill="none" xmlns="http://www.w3.org/2000/svg">
<path d="M19.9993 16.667C19.1153 16.667 18.2674 17.0182 17.6423 17.6433C17.0172 18.2684 16.666 19.1163 16.666 20.0003C16.666 20.8844 17.0172 21.7322 17.6423 22.3573C18.2674 22.9825 19.1153 23.3337 19.9993 23.3337C20.8834 23.3337 21.7312 22.9825 22.3564 22.3573C22.9815 21.7322 23.3327 20.8844 23.3327 20.0003C23.3327 19.1163 22.9815 18.2684 22.3564 17.6433C21.7312 17.0182 20.8834 16.667 19.9993 16.667Z" fill="white"/>
<circle cx="20" cy="20" r="19.5" stroke="#CCCCCC"/>
<path fill-rule="evenodd" clip-rule="evenodd" d="M16 10C14.4087 10 12.8826 10.6321 11.7574 11.7574C10.6321 12.8826 10 14.4087 10 16V24C10 25.5913 10.6321 27.1174 11.7574 28.2426C12.8826 29.3679 14.4087 30 16 30H24C25.5913 30 27.1174 29.3679 28.2426 28.2426C29.3679 27.1174 30 25.5913 30 24V16C30 14.4087 29.3679 12.8826 28.2426 11.7574C27.1174 10.6321 25.5913 10 24 10H16ZM15.3333 20C15.3333 18.7623 15.825 17.5753 16.7002 16.7002C17.5753 15.825 18.7623 15.3333 20 15.3333C21.2377 15.3333 22.4247 15.825 23.2998 16.7002C24.175 17.5753 24.6667 18.7623 24.6667 20C24.6667 21.2377 24.175 22.4247 23.2998 23.2998C22.4247 24.175 21.2377 24.6667 20 24.6667C18.7623 24.6667 17.5753 24.175 16.7002 23.2998C15.825 22.4247 15.3333 21.2377 15.3333 20ZM24.6667 15.3333H26V14H24.6667V15.3333Z" fill="white"/>
</svg>
