<svg width="1126" height="1000" viewBox="0 0 1126 1000" fill="none" xmlns="http://www.w3.org/2000/svg">
<rect width="1114" height="1000" fill="url(#paint0_linear_201_2)" fill-opacity="0.9"/>
<circle cx="240.5" cy="1058.5" r="278" stroke="#FF003A"/>
<circle cx="159.5" cy="1032.5" r="278" stroke="#FF003A"/>
<path d="M613.977 417.28C614.579 416.711 614.605 415.761 614.035 415.16C613.465 414.558 612.516 414.533 611.914 415.102L586.714 438.969C586.113 439.539 586.087 440.488 586.657 441.09C587.226 441.691 588.176 441.717 588.777 441.148L613.977 417.28Z" fill="white" fill-opacity="0.5"/>
<path d="M571 406.5C571 405.672 570.328 405 569.5 405C568.671 405 568 405.672 568 406.5V421.5C568 422.328 568.671 423 569.5 423C570.328 423 571 422.328 571 421.5V406.5Z" fill="white" fill-opacity="0.5"/>
<path d="M617.528 459.818C618.347 459.697 618.913 458.934 618.792 458.115C618.671 457.295 617.908 456.729 617.089 456.85L602.25 459.045C601.431 459.166 600.865 459.928 600.986 460.748C601.107 461.568 601.87 462.134 602.689 462.012L617.528 459.818Z" fill="white" fill-opacity="0.5"/>
<path d="M342.513 585.5C342.513 584.672 343.184 584 344.013 584C344.841 584 345.513 584.672 345.513 585.5V600.5C345.513 601.328 344.841 602 344.013 602C343.184 602 342.513 601.328 342.513 600.5V585.5Z" fill="white" fill-opacity="0.5"/>
<path d="M342.513 610.5C342.513 609.672 343.184 609 344.013 609C344.841 609 345.513 609.672 345.513 610.5V625.5C345.513 626.328 344.841 627 344.013 627C343.184 627 342.513 626.328 342.513 625.5V610.5Z" fill="white" fill-opacity="0.5"/>
<path d="M348.5 607.5C347.672 607.5 347 606.828 347 606C347 605.172 347.672 604.5 348.5 604.5H363.5C364.328 604.5 365 605.172 365 606C365 606.828 364.328 607.5 363.5 607.5H348.5Z" fill="white" fill-opacity="0.5"/>
<path d="M324.5 607.5C323.672 607.5 323 606.828 323 606C323 605.172 323.672 604.5 324.5 604.5H339.5C340.328 604.5 341 605.172 341 606C341 606.828 340.328 607.5 339.5 607.5H324.5Z" fill="white" fill-opacity="0.5"/>
<circle cx="847.5" cy="-155.5" r="278" stroke="#FF4872"/>
<circle cx="766.5" cy="-181.5" r="278" stroke="#FF4872"/>
<defs>
<linearGradient id="paint0_linear_201_2" x1="888" y1="206" x2="-84.5" y2="1125.5" gradientUnits="userSpaceOnUse">
<stop stop-color="#FC0039"/>
<stop offset="1" stop-color="#600C1F"/>
</linearGradient>
</defs>
</svg>
