<svg width="16" height="24" viewBox="0 0 16 24" fill="none" xmlns="http://www.w3.org/2000/svg">
<path d="M13.25 0H2.75C1.5125 0 0.5 1.0125 0.5 2.25V21.75C0.5 22.9875 1.5125 24 2.75 24H13.25C14.4875 24 15.5 22.9875 15.5 21.75V2.25C15.5 1.0125 14.4875 0 13.25 0ZM5 1.125H11V1.875H5V1.125ZM8 22.5C7.60218 22.5 7.22064 22.342 6.93934 22.0607C6.65804 21.7794 6.5 21.3978 6.5 21C6.5 20.6022 6.65804 20.2206 6.93934 19.9393C7.22064 19.658 7.60218 19.5 8 19.5C8.39782 19.5 8.77936 19.658 9.06066 19.9393C9.34196 20.2206 9.5 20.6022 9.5 21C9.5 21.3978 9.34196 21.7794 9.06066 22.0607C8.77936 22.342 8.39782 22.5 8 22.5ZM14 18H2V3H14V18Z" fill="#B8B8B8"/>
</svg>
