<svg width="28" height="28" viewBox="0 0 28 28" fill="none" xmlns="http://www.w3.org/2000/svg">
<path d="M14 2.625C11.7502 2.625 9.551 3.29213 7.68039 4.54203C5.80978 5.79193 4.35182 7.56847 3.49088 9.64698C2.62993 11.7255 2.40467 14.0126 2.84357 16.2192C3.28248 18.4257 4.36584 20.4525 5.95667 22.0433C7.54749 23.6342 9.57432 24.7175 11.7809 25.1564C13.9874 25.5953 16.2745 25.3701 18.353 24.5091C20.4315 23.6482 22.2081 22.1902 23.458 20.3196C24.7079 18.449 25.375 16.2498 25.375 14C25.3718 10.9841 24.1724 8.09271 22.0398 5.96018C19.9073 3.82764 17.0159 2.62818 14 2.625ZM11.1158 18.375H16.8842C16.2969 20.3809 15.3125 22.1889 14 23.613C12.6875 22.1889 11.7031 20.3809 11.1158 18.375ZM10.7188 16.625C10.4285 14.887 10.4285 13.113 10.7188 11.375H17.2813C17.5715 13.113 17.5715 14.887 17.2813 16.625H10.7188ZM4.375 14C4.37424 13.1124 4.49682 12.2289 4.73922 11.375H8.94579C8.68475 13.1153 8.68475 14.8847 8.94579 16.625H4.73922C4.49682 15.7711 4.37424 14.8876 4.375 14ZM16.8842 9.625H11.1158C11.7031 7.61906 12.6875 5.81109 14 4.38703C15.3125 5.81109 16.2969 7.61906 16.8842 9.625ZM19.0542 11.375H23.2608C23.7464 13.0913 23.7464 14.9087 23.2608 16.625H19.0542C19.3153 14.8847 19.3153 13.1153 19.0542 11.375ZM22.5717 9.625H18.6966C18.25 7.8679 17.5001 6.20227 16.4806 4.70312C17.7831 5.05315 18.9979 5.67188 20.047 6.51955C21.096 7.36721 21.956 8.42504 22.5717 9.625ZM11.5194 4.70312C10.4999 6.20227 9.74998 7.8679 9.30344 9.625H5.42829C6.04399 8.42504 6.90401 7.36721 7.95304 6.51955C9.00207 5.67188 10.2169 5.05315 11.5194 4.70312ZM5.42829 18.375H9.30344C9.74998 20.1321 10.4999 21.7977 11.5194 23.2969C10.2169 22.9469 9.00207 22.3281 7.95304 21.4804C6.90401 20.6328 6.04399 19.575 5.42829 18.375ZM16.4806 23.2969C17.5001 21.7977 18.25 20.1321 18.6966 18.375H22.5717C21.956 19.575 21.096 20.6328 20.047 21.4804C18.9979 22.3281 17.7831 22.9469 16.4806 23.2969Z" fill="white"/>
</svg>
